<svg xmlns="http://www.w3.org/2000/svg" width="94" height="1000" viewBox="0 0 94 1000" fill="none">
<path d="M 13.2 0.0 L 13.0 8.0 L 12.7 16.0 L 12.4 24.0 L 12.1 32.0 L 11.7 40.0 L 11.3 48.0 L 10.9 56.0 L 10.5 64.0 L 10.1 72.0 L 9.7 80.0 L 9.3 88.0 L 9.0 96.0 L 8.6 104.0 L 8.2 112.0 L 7.9 120.0 L 7.5 128.0 L 7.2 136.0 L 6.9 144.0 L 6.7 152.0 L 6.5 160.0 L 6.3 168.0 L 6.2 176.0 L 6.1 184.0 L 6.0 192.0 L 6.0 200.0 L 6.0 208.0 L 6.1 216.0 L 6.2 224.0 L 6.3 232.0 L 6.5 240.0 L 6.7 248.0 L 7.0 256.0 L 7.2 264.0 L 7.5 272.0 L 7.9 280.0 L 8.2 288.0 L 8.6 296.0 L 9.0 304.0 L 9.4 312.0 L 9.8 320.0 L 10.2 328.0 L 10.6 336.0 L 10.9 344.0 L 11.3 352.0 L 11.7 360.0 L 12.1 368.0 L 12.4 376.0 L 12.7 384.0 L 13.0 392.0 L 13.2 400.0 L 13.5 408.0 L 13.6 416.0 L 13.8 424.0 L 13.9 432.0 L 14.0 440.0 L 14.0 448.0 L 14.0 456.0 L 13.9 464.0 L 13.8 472.0 L 13.7 480.0 L 13.6 488.0 L 13.3 496.0 L 13.1 504.0 L 12.8 512.0 L 12.5 520.0 L 12.2 528.0 L 11.9 536.0 L 11.5 544.0 L 11.1 552.0 L 10.7 560.0 L 10.3 568.0 L 9.9 576.0 L 9.5 584.0 L 9.1 592.0 L 8.8 600.0 L 8.4 608.0 L 8.0 616.0 L 7.7 624.0 L 7.4 632.0 L 7.1 640.0 L 6.8 648.0 L 6.6 656.0 L 6.4 664.0 L 6.2 672.0 L 6.1 680.0 L 6.0 688.0 L 6.0 696.0 L 6.0 704.0 L 6.0 712.0 L 6.1 720.0 L 6.2 728.0 L 6.4 736.0 L 6.6 744.0 L 6.8 752.0 L 7.1 760.0 L 7.4 768.0 L 7.7 776.0 L 8.0 784.0 L 8.4 792.0 L 8.8 800.0 L 9.2 808.0 L 9.6 816.0 L 10.0 824.0 L 10.4 832.0 L 10.8 840.0 L 11.1 848.0 L 11.5 856.0 L 11.9 864.0 L 12.2 872.0 L 12.6 880.0 L 12.8 888.0 L 13.1 896.0 L 13.4 904.0 L 13.6 912.0 L 13.7 920.0 L 13.8 928.0 L 13.9 936.0 L 14.0 944.0 L 14.0 952.0 L 14.0 960.0 L 13.9 968.0 L 13.8 976.0 L 13.6 984.0 L 13.5 992.0 L 13.2 1000.0" stroke="#8FA492" stroke-width="1.3" stroke-linecap="round" stroke-linejoin="round" opacity="0.32"/>
<path d="M 30.0 0.0 L 32.6 8.0 L 35.0 16.0 L 37.4 24.0 L 39.6 32.0 L 41.6 40.0 L 43.4 48.0 L 44.8 56.0 L 45.9 64.0 L 46.6 72.0 L 47.0 80.0 L 46.9 88.0 L 46.5 96.0 L 45.7 104.0 L 44.6 112.0 L 43.1 120.0 L 41.3 128.0 L 39.3 136.0 L 37.0 144.0 L 34.6 152.0 L 32.1 160.0 L 29.6 168.0 L 27.0 176.0 L 24.5 184.0 L 22.2 192.0 L 20.0 200.0 L 18.1 208.0 L 16.4 216.0 L 15.0 224.0 L 14.0 232.0 L 13.3 240.0 L 13.0 248.0 L 13.1 256.0 L 13.6 264.0 L 14.4 272.0 L 15.6 280.0 L 17.2 288.0 L 19.0 296.0 L 21.1 304.0 L 23.3 312.0 L 25.8 320.0 L 28.3 328.0 L 30.9 336.0 L 33.4 344.0 L 35.9 352.0 L 38.2 360.0 L 40.3 368.0 L 42.2 376.0 L 43.9 384.0 L 45.2 392.0 L 46.2 400.0 L 46.8 408.0 L 47.0 416.0 L 46.8 424.0 L 46.3 432.0 L 45.4 440.0 L 44.1 448.0 L 42.5 456.0 L 40.7 464.0 L 38.6 472.0 L 36.3 480.0 L 33.8 488.0 L 31.3 496.0 L 28.7 504.0 L 26.2 512.0 L 23.7 520.0 L 21.4 528.0 L 19.3 536.0 L 17.5 544.0 L 15.9 552.0 L 14.6 560.0 L 13.7 568.0 L 13.2 576.0 L 13.0 584.0 L 13.2 592.0 L 13.8 600.0 L 14.8 608.0 L 16.1 616.0 L 17.8 624.0 L 19.7 632.0 L 21.8 640.0 L 24.1 648.0 L 26.6 656.0 L 29.1 664.0 L 31.7 672.0 L 34.2 680.0 L 36.7 688.0 L 38.9 696.0 L 41.0 704.0 L 42.8 712.0 L 44.4 720.0 L 45.6 728.0 L 46.4 736.0 L 46.9 744.0 L 47.0 752.0 L 46.7 760.0 L 46.0 768.0 L 45.0 776.0 L 43.6 784.0 L 41.9 792.0 L 40.0 800.0 L 37.8 808.0 L 35.5 816.0 L 33.0 824.0 L 30.4 832.0 L 27.9 840.0 L 25.4 848.0 L 23.0 856.0 L 20.7 864.0 L 18.7 872.0 L 16.9 880.0 L 15.4 888.0 L 14.3 896.0 L 13.5 904.0 L 13.1 912.0 L 13.0 920.0 L 13.4 928.0 L 14.1 936.0 L 15.2 944.0 L 16.6 952.0 L 18.4 960.0 L 20.4 968.0 L 22.6 976.0 L 25.0 984.0 L 27.4 992.0 L 30.0 1000.0" stroke="#F36A21" stroke-width="2.0" stroke-linecap="round" stroke-linejoin="round" opacity="0.55"/>
<path d="M 54.8 0.0 L 54.4 8.0 L 53.9 16.0 L 53.1 24.0 L 52.1 32.0 L 50.9 40.0 L 49.6 48.0 L 48.1 56.0 L 46.5 64.0 L 44.7 72.0 L 42.9 80.0 L 40.9 88.0 L 38.9 96.0 L 36.8 104.0 L 34.7 112.0 L 32.6 120.0 L 30.5 128.0 L 28.5 136.0 L 26.4 144.0 L 24.5 152.0 L 22.7 160.0 L 21.0 168.0 L 19.4 176.0 L 17.9 184.0 L 16.7 192.0 L 15.6 200.0 L 14.6 208.0 L 13.9 216.0 L 13.4 224.0 L 13.1 232.0 L 13.0 240.0 L 13.1 248.0 L 13.4 256.0 L 14.0 264.0 L 14.7 272.0 L 15.6 280.0 L 16.7 288.0 L 18.0 296.0 L 19.5 304.0 L 21.1 312.0 L 22.8 320.0 L 24.7 328.0 L 26.6 336.0 L 28.6 344.0 L 30.7 352.0 L 32.8 360.0 L 34.9 368.0 L 37.0 376.0 L 39.0 384.0 L 41.1 392.0 L 43.0 400.0 L 44.9 408.0 L 46.6 416.0 L 48.2 424.0 L 49.7 432.0 L 51.0 440.0 L 52.2 448.0 L 53.1 456.0 L 53.9 464.0 L 54.5 472.0 L 54.8 480.0 L 55.0 488.0 L 54.9 496.0 L 54.7 504.0 L 54.2 512.0 L 53.5 520.0 L 52.6 528.0 L 51.5 536.0 L 50.3 544.0 L 48.9 552.0 L 47.3 560.0 L 45.6 568.0 L 43.8 576.0 L 41.9 584.0 L 39.9 592.0 L 37.9 600.0 L 35.8 608.0 L 33.7 616.0 L 31.6 624.0 L 29.5 632.0 L 27.4 640.0 L 25.5 648.0 L 23.6 656.0 L 21.8 664.0 L 20.2 672.0 L 18.6 680.0 L 17.3 688.0 L 16.1 696.0 L 15.1 704.0 L 14.3 712.0 L 13.6 720.0 L 13.2 728.0 L 13.0 736.0 L 13.0 744.0 L 13.2 752.0 L 13.7 760.0 L 14.3 768.0 L 15.1 776.0 L 16.2 784.0 L 17.4 792.0 L 18.7 800.0 L 20.3 808.0 L 21.9 816.0 L 23.7 824.0 L 25.6 832.0 L 27.6 840.0 L 29.6 848.0 L 31.7 856.0 L 33.8 864.0 L 35.9 872.0 L 38.0 880.0 L 40.1 888.0 L 42.0 896.0 L 44.0 904.0 L 45.8 912.0 L 47.4 920.0 L 49.0 928.0 L 50.4 936.0 L 51.6 944.0 L 52.7 952.0 L 53.6 960.0 L 54.2 968.0 L 54.7 976.0 L 54.9 984.0 L 55.0 992.0 L 54.8 1000.0" stroke="#8FA492" stroke-width="1.7" stroke-linecap="round" stroke-linejoin="round" opacity="0.48"/>
<path d="M 21.9 0.0 L 19.7 8.0 L 17.6 16.0 L 15.9 24.0 L 14.5 32.0 L 13.6 40.0 L 13.1 48.0 L 13.1 56.0 L 13.5 64.0 L 14.5 72.0 L 15.8 80.0 L 17.5 88.0 L 19.6 96.0 L 21.8 104.0 L 24.2 112.0 L 26.6 120.0 L 28.9 128.0 L 31.1 136.0 L 33.1 144.0 L 34.7 152.0 L 35.9 160.0 L 36.7 168.0 L 37.0 176.0 L 36.8 184.0 L 36.2 192.0 L 35.1 200.0 L 33.6 208.0 L 31.7 216.0 L 29.6 224.0 L 27.3 232.0 L 24.9 240.0 L 22.5 248.0 L 20.2 256.0 L 18.1 264.0 L 16.3 272.0 L 14.8 280.0 L 13.8 288.0 L 13.1 296.0 L 13.0 304.0 L 13.4 312.0 L 14.2 320.0 L 15.4 328.0 L 17.1 336.0 L 19.0 344.0 L 21.2 352.0 L 23.6 360.0 L 26.0 368.0 L 28.4 376.0 L 30.6 384.0 L 32.6 392.0 L 34.3 400.0 L 35.6 408.0 L 36.5 416.0 L 37.0 424.0 L 36.9 432.0 L 36.4 440.0 L 35.4 448.0 L 34.0 456.0 L 32.2 464.0 L 30.2 472.0 L 27.9 480.0 L 25.5 488.0 L 23.1 496.0 L 20.8 504.0 L 18.6 512.0 L 16.7 520.0 L 15.2 528.0 L 14.0 536.0 L 13.3 544.0 L 13.0 552.0 L 13.2 560.0 L 13.9 568.0 L 15.1 576.0 L 16.6 584.0 L 18.5 592.0 L 20.7 600.0 L 23.0 608.0 L 25.4 616.0 L 27.8 624.0 L 30.0 632.0 L 32.1 640.0 L 33.9 648.0 L 35.3 656.0 L 36.3 664.0 L 36.9 672.0 L 37.0 680.0 L 36.6 688.0 L 35.7 696.0 L 34.4 704.0 L 32.7 712.0 L 30.7 720.0 L 28.5 728.0 L 26.1 736.0 L 23.7 744.0 L 21.4 752.0 L 19.1 760.0 L 17.2 768.0 L 15.5 776.0 L 14.2 784.0 L 13.4 792.0 L 13.0 800.0 L 13.1 808.0 L 13.7 816.0 L 14.8 824.0 L 16.2 832.0 L 18.0 840.0 L 20.1 848.0 L 22.4 856.0 L 24.8 864.0 L 27.2 872.0 L 29.5 880.0 L 31.6 888.0 L 33.5 896.0 L 35.0 904.0 L 36.1 912.0 L 36.8 920.0 L 37.0 928.0 L 36.7 936.0 L 35.9 944.0 L 34.7 952.0 L 33.2 960.0 L 31.2 968.0 L 29.1 976.0 L 26.7 984.0 L 24.3 992.0 L 21.9 1000.0" stroke="#F0A46A" stroke-width="1.4" stroke-linecap="round" stroke-linejoin="round" opacity="0.4"/>
<path d="M 47.5 0.0 L 48.8 8.0 L 49.7 16.0 L 50.0 24.0 L 49.8 32.0 L 49.0 40.0 L 47.7 48.0 L 45.9 56.0 L 43.9 64.0 L 41.7 72.0 L 39.5 80.0 L 37.3 88.0 L 35.4 96.0 L 33.8 104.0 L 32.7 112.0 L 32.1 120.0 L 32.1 128.0 L 32.6 136.0 L 33.6 144.0 L 35.1 152.0 L 37.0 160.0 L 39.2 168.0 L 41.4 176.0 L 43.6 184.0 L 45.7 192.0 L 47.5 200.0 L 48.8 208.0 L 49.7 216.0 L 50.0 224.0 L 49.8 232.0 L 49.0 240.0 L 47.7 248.0 L 45.9 256.0 L 43.9 264.0 L 41.7 272.0 L 39.5 280.0 L 37.3 288.0 L 35.4 296.0 L 33.8 304.0 L 32.7 312.0 L 32.1 320.0 L 32.1 328.0 L 32.6 336.0 L 33.6 344.0 L 35.1 352.0 L 37.0 360.0 L 39.2 368.0 L 41.4 376.0 L 43.6 384.0 L 45.7 392.0 L 47.5 400.0 L 48.8 408.0 L 49.7 416.0 L 50.0 424.0 L 49.8 432.0 L 49.0 440.0 L 47.7 448.0 L 45.9 456.0 L 43.9 464.0 L 41.7 472.0 L 39.5 480.0 L 37.3 488.0 L 35.4 496.0 L 33.8 504.0 L 32.7 512.0 L 32.1 520.0 L 32.1 528.0 L 32.6 536.0 L 33.6 544.0 L 35.1 552.0 L 37.0 560.0 L 39.2 568.0 L 41.4 576.0 L 43.6 584.0 L 45.7 592.0 L 47.5 600.0 L 48.8 608.0 L 49.7 616.0 L 50.0 624.0 L 49.8 632.0 L 49.0 640.0 L 47.7 648.0 L 45.9 656.0 L 43.9 664.0 L 41.7 672.0 L 39.5 680.0 L 37.3 688.0 L 35.4 696.0 L 33.8 704.0 L 32.7 712.0 L 32.1 720.0 L 32.1 728.0 L 32.6 736.0 L 33.6 744.0 L 35.1 752.0 L 37.0 760.0 L 39.2 768.0 L 41.4 776.0 L 43.6 784.0 L 45.7 792.0 L 47.5 800.0 L 48.8 808.0 L 49.7 816.0 L 50.0 824.0 L 49.8 832.0 L 49.0 840.0 L 47.7 848.0 L 45.9 856.0 L 43.9 864.0 L 41.7 872.0 L 39.5 880.0 L 37.3 888.0 L 35.4 896.0 L 33.8 904.0 L 32.7 912.0 L 32.1 920.0 L 32.1 928.0 L 32.6 936.0 L 33.6 944.0 L 35.1 952.0 L 37.0 960.0 L 39.2 968.0 L 41.4 976.0 L 43.6 984.0 L 45.7 992.0 L 47.5 1000.0" stroke="#6E8A76" stroke-width="1.2" stroke-linecap="round" stroke-linejoin="round" opacity="0.3"/>
<path d="M 47.3 250.0 C 56.2 249.5 63.3 251.5 65.1 251.6" stroke="#6E8A76" stroke-width="1.3" stroke-linecap="round" opacity="0.24"/>
<circle cx="65.1" cy="251.6" r="2.6" fill="#6E8A76" opacity="0.50"/>
<circle cx="42.4" cy="790.0" r="2.0" fill="#F36A21" opacity="0.70"/>
<circle cx="13.1" cy="910.0" r="2.0" fill="#F36A21" opacity="0.70"/>
<path d="M 33.2 490.0 C 43.4 485.4 51.5 503.7 53.5 505.2" stroke="#F36A21" stroke-width="1.3" stroke-linecap="round" opacity="0.44"/>
<circle cx="53.5" cy="505.2" r="2.6" fill="#F36A21" opacity="0.75"/>
<path d="M 45.8 730.0 C 53.9 730.8 60.3 727.7 61.9 727.4" stroke="#F36A21" stroke-width="1.3" stroke-linecap="round" opacity="0.44"/>
<circle cx="61.9" cy="727.4" r="2.6" fill="#F36A21" opacity="0.75"/>
<path d="M 22.8 310.0 C 34.2 308.3 43.4 315.2 45.7 315.8" stroke="#F36A21" stroke-width="1.3" stroke-linecap="round" opacity="0.44"/>
<circle cx="45.7" cy="315.8" r="2.6" fill="#F36A21" opacity="0.75"/>
<path d="M 24.7 850.0 C 36.9 851.2 46.5 846.3 49.0 845.9" stroke="#F36A21" stroke-width="1.3" stroke-linecap="round" opacity="0.44"/>
<circle cx="49.0" cy="845.9" r="2.6" fill="#F36A21" opacity="0.75"/>
<path d="M 15.1 610.0 C 27.1 610.0 36.6 609.9 39.0 609.9" stroke="#F36A21" stroke-width="1.3" stroke-linecap="round" opacity="0.44"/>
<circle cx="39.0" cy="609.9" r="2.6" fill="#F36A21" opacity="0.75"/>
<circle cx="34.7" cy="550.0" r="2.0" fill="#6E8A76" opacity="0.45"/>
<path d="M 32.1 130.0 C 42.8 131.9 51.3 124.2 53.4 123.6" stroke="#6E8A76" stroke-width="1.3" stroke-linecap="round" opacity="0.24"/>
<circle cx="53.4" cy="123.6" r="2.6" fill="#6E8A76" opacity="0.50"/>
<circle cx="45.2" cy="70.0" r="2.0" fill="#8FA492" opacity="0.63"/>
<path d="M 20.6 670.0 C 30.0 670.0 37.5 669.9 39.4 669.8" stroke="#8FA492" stroke-width="1.3" stroke-linecap="round" opacity="0.38"/>
<circle cx="39.4" cy="669.8" r="2.6" fill="#8FA492" opacity="0.68"/>
<circle cx="37.0" cy="430.0" r="2.0" fill="#F0A46A" opacity="0.55"/>
<path d="M 36.4 190.0 C 44.0 189.9 50.0 190.3 51.6 190.4" stroke="#F0A46A" stroke-width="1.3" stroke-linecap="round" opacity="0.32"/>
<circle cx="51.6" cy="190.4" r="2.6" fill="#F0A46A" opacity="0.60"/>
</svg>